<svg baseProfile="tiny" xmlns="http://www.w3.org/2000/svg" width="48" height="48" viewBox="0 0 116.667 116.667"><circle fill="#E32127" cx="57.688" cy="57.688" r="57.688"/><g fill="#FFF"><path d="M95.886 69.645c-2.207 2.827-6.137 7.104-8.895 7.104-.622 0-1.034-.345-1.034-.966 0-1.725 2.62-4.894 3.931-7.31.481-.896.619-1.378.481-2.206-.069-.483-.275-1.104-.552-1.586-.344-.69-.62-.69-1.447-.207-3.654 2.275-8.482 6.275-11.86 10.068 1.517-2.623 3.722-5.518 5.171-8.345.481-.965.689-1.586.55-2.619-.068-.553-.344-1.45-.758-2.002-.412-.55-.758-.621-1.447-.206-2.619 1.862-8.206 6.688-12.068 10.757 1.449-1.931 3.104-4.345 4.207-6.206.482-.827.69-1.656.344-2.689-.207-.55-.621-1.171-.965-1.517-.344-.345-.621-.345-.964.138-2.129 3.047-5.917 7.613-8.363 10.892-.94.692-1.839 1.039-2.738 1.039-.275 0-.481-.069-.688-.138 1.309-2.276 2.068-4.622 2.068-6.345 0-.897-.345-1.379-.964-1.379-2.07 0-4.484 3.311-4.484 6.344 0 .689.138 1.31.346 1.93-1.449 1.517-3.172 2.622-4.622 2.622-1.17 0-1.655-.758-1.655-2.001 0-4.343 5.242-10.343 11.034-11.791.553-.138.553-.552.139-.758-.896-.415-1.931-.622-3.034-.622-7.38 0-14.481 7.034-14.481 14.136 0 3.516 2.414 5.516 5.171 5.516 3.379 0 6.552-2.344 8.827-5.31.55.345 1.171.552 1.93.552.359 0 .709-.043 1.047-.119-.072.396-.094.799-.014 1.222.206.964.55 1.793.964 2.414.344.482.621.551 1.103.067 4.139-4.137 9.447-9.17 13.723-12.549-1.862 2.414-4 5.722-5.171 7.998-1.035 2.069-1.104 3.242-.346 4.413.346.553.829 1.105 1.241 1.449.415.277.758.345 1.243-.206 3.999-4.689 8.412-8.964 12.825-12.136-2.414 2.825-4.483 5.792-4.689 8.55-.138 2.207 1.102 3.654 3.102 3.654 4.966 0 9.863-6.205 12.208-9.17.483-.691.621-1.586.275-2.413-.208-.415-.414-.415-.691-.069z"/><path d="M60.382 38.448c9.393-.112 26.711-.322 29.68-.542.001-.001.001-.004.004-.006 1.439 0 3.154-.686 3.911-1.235.756-.55 1.511-1.373 1.99-2.127.344-.549.205-.825-.343-.894-.685-.068-1.509-.136-2.403-.136a.0108.0108 0 0 0 .006-.007c-3.165-.08-21.264.007-30.014.075.039-.191.095-.384.095-.571 0-.753-.342-2.195-.823-2.814-.206-.274-.482-.344-.757 0-.795.94-1.743 2.102-2.799 3.428-.134.002-.248.004-.322.006-2.81.104-23.303.806-35.761 1.613-1.434.125-2.728.25-3.79.375-.412.068-.618.411-.276.891.344.48.825.961 1.509 1.374 1.374.754 3.434.89 5.355.89a.1594.1594 0 0 1-.015.021c4.387.165 25.328-.255 27.701-.255.45-.001.9-.008 1.351-.013.113-.001.254-.004.416-.006-4.593 5.953-10.262 13.548-15.605 20.847h-.01c-1.553 2.112-3.288 4.487-4.581 6.308-3.982 5.607-7.546 10.671-9.822 14.213-.687 1.029-.961 2.057-.619 3.089.275.82.756 1.647 1.237 2.125.342.342.617.481.959.069 3.677-4.426 9.719-12.569 15.914-21.141 1.524-2.112 3.176-4.422 4.33-6.04 5.018-7.053 9.826-14.021 13.482-19.537z"/></g></svg>