<?xml version="1.0" encoding="utf-8"?>
<!-- Generator: Adobe Illustrator 15.0.0, SVG Export Plug-In . SVG Version: 6.00 Build 0)  -->
<!DOCTYPE svg PUBLIC "-//W3C//DTD SVG 1.1 Tiny//EN" "http://www.w3.org/Graphics/SVG/1.1/DTD/svg11-tiny.dtd">
<svg version="1.1" baseProfile="tiny" xmlns="http://www.w3.org/2000/svg" xmlns:xlink="http://www.w3.org/1999/xlink" x="0px"
	 y="0px" width="116.667px" height="116.667px" viewBox="0 0 116.667 116.667" xml:space="preserve">
<g id="Layer_3">
</g>
<g id="Layer_2">
	<g>
		<circle fill="#E32127" cx="57.688" cy="57.688" r="57.688"/>
		<g>
			<path fill="#FFFFFF" d="M95.886,69.645c-2.207,2.827-6.137,7.104-8.895,7.104c-0.622,0-1.034-0.345-1.034-0.966
				c0-1.725,2.62-4.894,3.931-7.31c0.481-0.896,0.619-1.378,0.481-2.206c-0.069-0.483-0.275-1.104-0.552-1.586
				c-0.344-0.69-0.62-0.69-1.447-0.207c-3.654,2.275-8.482,6.275-11.86,10.068c1.517-2.623,3.722-5.518,5.171-8.345
				c0.481-0.965,0.689-1.586,0.55-2.619c-0.068-0.553-0.344-1.45-0.758-2.002c-0.412-0.55-0.758-0.621-1.447-0.206
				c-2.619,1.862-8.206,6.688-12.068,10.757c1.449-1.931,3.104-4.345,4.207-6.206c0.482-0.827,0.69-1.656,0.344-2.689
				c-0.207-0.55-0.621-1.171-0.965-1.517c-0.344-0.345-0.621-0.345-0.964,0.138c-2.129,3.047-5.917,7.613-8.363,10.892
				c-0.94,0.692-1.839,1.039-2.738,1.039c-0.275,0-0.481-0.069-0.688-0.138c1.309-2.276,2.068-4.622,2.068-6.345
				c0-0.897-0.345-1.379-0.964-1.379c-2.07,0-4.484,3.311-4.484,6.344c0,0.689,0.138,1.31,0.346,1.93
				c-1.449,1.517-3.172,2.622-4.622,2.622c-1.17,0-1.655-0.758-1.655-2.001c0-4.343,5.242-10.343,11.034-11.791
				c0.553-0.138,0.553-0.552,0.139-0.758c-0.896-0.415-1.931-0.622-3.034-0.622c-7.38,0-14.481,7.034-14.481,14.136
				c0,3.516,2.414,5.516,5.171,5.516c3.379,0,6.552-2.344,8.827-5.31c0.55,0.345,1.171,0.552,1.93,0.552
				c0.359,0,0.709-0.043,1.047-0.119c-0.072,0.396-0.094,0.799-0.014,1.222c0.206,0.964,0.55,1.793,0.964,2.414
				c0.344,0.482,0.621,0.551,1.103,0.067c4.139-4.137,9.447-9.17,13.723-12.549c-1.862,2.414-4,5.722-5.171,7.998
				c-1.035,2.069-1.104,3.242-0.346,4.413c0.346,0.553,0.829,1.105,1.241,1.449c0.415,0.277,0.758,0.345,1.243-0.206
				c3.999-4.689,8.412-8.964,12.825-12.136c-2.414,2.825-4.483,5.792-4.689,8.55c-0.138,2.207,1.102,3.654,3.102,3.654
				c4.966,0,9.863-6.205,12.208-9.17c0.483-0.691,0.621-1.586,0.275-2.413C96.369,69.299,96.163,69.299,95.886,69.645z"/>
			<path fill="#FFFFFF" d="M60.382,38.448c9.393-0.112,26.711-0.322,29.68-0.542c0.001-0.001,0.001-0.004,0.004-0.006
				c1.439,0,3.154-0.686,3.911-1.235c0.756-0.55,1.511-1.373,1.99-2.127c0.344-0.549,0.205-0.825-0.343-0.894
				c-0.685-0.068-1.509-0.136-2.403-0.136c0.002-0.001,0.005-0.003,0.006-0.007c-3.165-0.08-21.264,0.007-30.014,0.075
				c0.039-0.191,0.095-0.384,0.095-0.571c0-0.753-0.342-2.195-0.823-2.814c-0.206-0.274-0.482-0.344-0.757,0
				c-0.795,0.94-1.743,2.102-2.799,3.428c-0.134,0.002-0.248,0.004-0.322,0.006c-2.81,0.104-23.303,0.806-35.761,1.613
				c-1.434,0.125-2.728,0.25-3.79,0.375c-0.412,0.068-0.618,0.411-0.276,0.891c0.344,0.48,0.825,0.961,1.509,1.374
				c1.374,0.754,3.434,0.89,5.355,0.89c-0.005,0.008-0.009,0.014-0.015,0.021c4.387,0.165,25.328-0.255,27.701-0.255
				c0.45-0.001,0.9-0.008,1.351-0.013c0.113-0.001,0.254-0.004,0.416-0.006c-4.593,5.953-10.262,13.548-15.605,20.847h-0.01
				c-1.553,2.112-3.288,4.487-4.581,6.308c-3.982,5.607-7.546,10.671-9.822,14.213c-0.687,1.029-0.961,2.057-0.619,3.089
				c0.275,0.82,0.756,1.647,1.237,2.125c0.342,0.342,0.617,0.481,0.959,0.069c3.677-4.426,9.719-12.569,15.914-21.141
				c1.524-2.112,3.176-4.422,4.33-6.04C51.918,50.932,56.726,43.964,60.382,38.448z"/>
		</g>
	</g>
</g>
</svg>
