<svg xmlns="http://www.w3.org/2000/svg" xmlns:xlink="http://www.w3.org/1999/xlink" aria-hidden="true" focusable="false" width="5.07em" height="1em" style="-ms-transform: rotate(360deg); -webkit-transform: rotate(360deg); transform: rotate(360deg);" preserveAspectRatio="xMidYMid meet" viewBox="0 0 512 101"><defs><linearGradient x1="100.93%" y1="181.283%" x2="41.769%" y2="100%" id="IconifyId-1744a06cfc5-591efd-3"><stop stop-color="#FFF" offset="0%"/><stop offset="100%"/></linearGradient></defs><path fill="url(#IconifyId-1744a06cfc5-591efd-3)" d="M56.858 0l56.857 100.875H0z"/><path d="M191.26 75.835h45.613v-7.918h-34.237l33.68-48.066v-6.914h-44.498v7.918h33.122L191.26 68.92v6.914zm93.345 0h40.928v-7.918h-31.672V47.731h27.546v-7.918H293.86V20.855h31.672v-7.918h-40.928v62.898zm90.221 0h39.925v-7.918h-15.279V20.855h15.279v-7.918h-39.925v7.918h15.39v47.062h-15.39v7.918zm105.611 0h9.257v-54.98h21.412v-7.918h-51.858v7.918h21.19v54.98z" fill="#333"/></svg>